<?xml version="1.0" encoding="iso-8859-1"?>
<!-- Generator: Adobe Illustrator 18.0.0, SVG Export Plug-In . SVG Version: 6.00 Build 0)  -->
<!DOCTYPE svg PUBLIC "-//W3C//DTD SVG 1.1//EN" "http://www.w3.org/Graphics/SVG/1.1/DTD/svg11.dtd">
<svg version="1.1" id="Capa_1" xmlns="http://www.w3.org/2000/svg" xmlns:xlink="http://www.w3.org/1999/xlink" x="0px" y="0px"
	 viewBox="0 0 472 472" style="enable-background:new 0 0 472 472;" xml:space="preserve">
<path d="M468,171.583H286.952v-3.595c0-2.209-1.791-4-4-4c-2.209,0-4,1.791-4,4v3.595H97.904c-2.209,0-4,1.791-4,4
	c0,2.209,1.791,4,4,4h181.048v12.024h-58.1c-8.712,0-15.865,6.798-16.436,15.368c-1.54,2.465-4.221,3.966-7.17,3.966H62.453
	l-41.612-48.324c-0.76-0.882-1.867-1.39-3.031-1.39H4c-1.431,0-2.753,0.765-3.467,2.005c-0.714,1.24-0.711,2.768,0.008,4.005
	l28.812,49.582l-13.295,43.208c-0.373,1.213-0.148,2.531,0.605,3.553c0.754,1.021,1.948,1.623,3.218,1.623h20.023
	c1.772,0,3.334-1.166,3.836-2.866l8.007-27.1l156.825,20.776c12.989,12.934,29.308,22.1,46.903,26.645v20.117h-16.714
	c-2.209,0-4,1.791-4,4s1.791,4,4,4H381c7.154,0,12.976-5.821,12.976-12.976c0-2.209-1.791-4-4-4c-2.209,0-4,1.791-4,4
	c0,2.744-2.233,4.976-4.976,4.976h-19.786v-16.915c21.16-0.583,42.254-5.777,61.313-15.144c3.545-1.743,5.877-5.131,6.238-9.064
	c0.361-3.933-1.314-7.69-4.481-10.049l-42.991-32.025c-10.466-7.795-23.415-12.088-36.463-12.088h-33.03
	c-0.313-8.81-7.576-15.881-16.461-15.881h-8.386v-12.024H468c2.209,0,4-1.791,4-4C472,173.374,470.209,171.583,468,171.583z
	 M280.955,277.917c-17.097,0-33.894-4.746-48.448-13.404h184.427c-18.582,8.766-39.178,13.404-59.72,13.404H280.955z
	 M263.476,302.774v-18.381c5.749,1.006,11.598,1.524,17.479,1.524h72.259v16.857H263.476z M302.915,230.54l5.378,11.337h-16.732
	l-6.072-11.337H302.915z M317.149,241.877l-5.378-11.337h41.151l5.378,11.337H317.149z M367.156,241.877l-5.378-11.337h20.841
	l15.219,11.337H367.156z M344.829,215.488c9.234,0,18.41,2.475,26.41,7.052h-92.43c-1.406,0-2.709,0.739-3.432,1.945
	c-0.723,1.206-0.759,2.704-0.095,3.943l10.356,19.337c0.696,1.3,2.052,2.112,3.526,2.112h119.412l8.907,6.635H221.07
	c-2.707-2.209-5.301-4.568-7.756-7.081c-0.626-0.641-1.448-1.053-2.336-1.171l-101.446-13.439h106.444c2.209,0,4-1.791,4-4
	c0-8.455,6.879-15.333,15.334-15.333H344.829z M303.789,207.488h-68.48c-11.503,0-21.089,8.366-22.991,19.333H48.927
	c-0.016,0-0.032,0-0.049,0c-1.75,0-3.325,1.149-3.833,2.867l-8.13,27.514H25.297l12.217-39.704c0.328-1.066,0.196-2.221-0.364-3.186
	L10.95,169.226h5.025l41.612,48.324c0.76,0.882,1.867,1.39,3.031,1.39h136.628c6.258,0,11.894-3.473,14.707-9.064
	c0.28-0.558,0.427-1.174,0.427-1.798c0-4.671,3.801-8.472,8.472-8.472h74.485C299.811,199.607,303.485,203.091,303.789,207.488z"/>
<g>
</g>
<g>
</g>
<g>
</g>
<g>
</g>
<g>
</g>
<g>
</g>
<g>
</g>
<g>
</g>
<g>
</g>
<g>
</g>
<g>
</g>
<g>
</g>
<g>
</g>
<g>
</g>
<g>
</g>
</svg>
